<svg version="1.1" id="Layer_1" xmlns="http://www.w3.org/2000/svg" xmlns:xlink="http://www.w3.org/1999/xlink" x="0px" y="0px"
	 width="100%" viewBox="0 0 4844 3663" enable-background="new 0 0 4844 3663" xml:space="preserve">
<path fill="#01A89E" opacity="1.000000" stroke="none" 
	d="
M4848.000000,8.000000 
	C4848.000000,1227.765991 4848.000000,2447.531982 4848.000000,3668.000000 
	C3237.209717,3668.000000 1626.419434,3668.000000 13.753078,3666.125977 
	C11.848735,3658.255371 11.795542,3652.258545 11.795522,3646.261719 
	C11.791553,2441.534912 11.790674,1236.807983 11.807425,32.081139 
	C11.807536,24.087955 12.053677,16.094776 13.973677,8.072242 
	C232.350204,8.034637 448.937988,8.020350 665.525757,8.019114 
	C2059.683838,8.011151 3453.842041,8.006044 4848.000000,8.000000 
M2084.867432,954.914734 
	C2081.406494,958.045288 2077.887207,961.113892 2074.493408,964.315491 
	C1925.255249,1105.101318 1876.131592,1311.666748 1933.986938,1497.946411 
	C2015.425293,1760.157715 2285.654541,1912.619141 2552.982178,1848.681885 
	C2770.736328,1796.601318 2949.809814,1599.462891 2950.289551,1342.779663 
	C2950.483887,1238.844971 2921.303711,1142.963501 2863.754883,1056.103027 
	C2745.713135,877.938110 2530.580566,790.275146 2321.867676,834.967346 
	C2233.272705,853.938416 2155.151855,893.549133 2084.867432,954.914734 
M3213.131348,2563.453369 
	C3218.993408,2563.164795 3224.855469,2562.876221 3232.010010,2562.524170 
	C3240.649902,2498.962891 3248.936035,2436.297363 3257.741455,2373.704834 
	C3266.530273,2311.230225 3274.134521,2248.578613 3284.051514,2184.783691 
	C3291.870117,2189.473145 3293.211670,2196.375000 3296.033203,2202.041992 
	C3353.016113,2316.484619 3409.886230,2430.983154 3466.790527,2545.464844 
	C3469.158203,2550.227783 3471.269531,2555.175781 3474.161621,2559.605957 
	C3477.808105,2565.192871 3487.628418,2564.854004 3491.226318,2559.083252 
	C3494.034668,2554.579102 3496.252930,2549.697754 3498.612549,2544.924072 
	C3533.723877,2473.889893 3568.815430,2402.845703 3603.911133,2331.803955 
	C3625.735352,2287.626953 3647.499023,2243.419678 3669.494629,2199.328125 
	C3671.333740,2195.641602 3671.713135,2189.907471 3679.418701,2189.853027 
	C3683.678223,2220.619873 3687.959717,2251.412109 3692.199219,2282.209961 
	C3696.467529,2313.217773 3700.634521,2344.239258 3704.955811,2375.239502 
	C3709.368896,2406.897217 3713.807861,2438.552002 3718.434326,2470.179199 
	C3722.939453,2500.975098 3725.411621,2532.111816 3732.262695,2562.918945 
	C3749.921875,2562.983643 3766.306152,2565.454590 3783.768311,2561.116455 
	C3758.170898,2384.161865 3732.729492,2208.260498 3707.204346,2032.370972 
	C3707.043945,2031.265503 3705.720459,2030.328735 3704.061768,2028.170166 
	C3701.677002,2029.361572 3698.112549,2030.024902 3696.557861,2032.154907 
	C3693.452881,2036.408936 3691.354004,2041.420166 3689.007080,2046.201050 
	C3664.651611,2095.815674 3640.344482,2145.454102 3615.995605,2195.071777 
	C3574.927246,2278.760498 3533.865234,2362.451904 3492.697021,2446.091064 
	C3489.908691,2451.756104 3488.824707,2458.812988 3481.128906,2462.317383 
	C3477.667969,2455.541260 3474.286133,2449.087891 3471.050781,2442.561523 
	C3405.984619,2311.310059 3340.938477,2180.049072 3275.874268,2048.796631 
	C3273.212891,2043.427734 3270.586182,2038.029297 3267.628906,2032.823120 
	C3265.439453,2028.967896 3262.284668,2026.943726 3257.858154,2029.873657 
	C3253.270020,2047.932373 3187.136230,2499.795898 3181.015381,2555.437988 
	C3180.812500,2557.282227 3181.527588,2559.227539 3181.978271,2562.208008 
	C3191.042725,2564.337891 3200.346191,2563.129150 3213.131348,2563.453369 
M1591.731812,2134.125488 
	C1588.098633,2129.358643 1584.563232,2124.513428 1580.817505,2119.836670 
	C1492.169678,2009.154175 1356.600952,1997.453491 1263.310425,2030.080444 
	C1119.338257,2080.432129 1049.530884,2233.134521 1086.401489,2372.248535 
	C1111.818237,2468.147217 1192.337769,2545.699463 1288.755737,2568.526611 
	C1328.147705,2577.852783 1367.758301,2578.628174 1407.773315,2572.885986 
	C1517.072388,2557.201416 1597.767212,2472.284180 1623.744995,2394.530762 
	C1653.909424,2304.246338 1646.609863,2217.434570 1591.731812,2134.125488 
M2583.520752,2414.321533 
	C2559.626465,2383.142822 2535.729492,2351.966309 2511.865967,2320.763672 
	C2511.525879,2320.319336 2511.455811,2319.536621 2511.528564,2318.944580 
	C2511.607178,2318.308105 2512.003418,2317.710693 2512.773926,2315.872803 
	C2525.198975,2314.715820 2538.295166,2313.513428 2551.387695,2312.273682 
	C2570.041016,2310.507080 2588.310791,2306.824951 2605.745117,2299.912842 
	C2647.597900,2283.319824 2674.776855,2253.375488 2686.191650,2209.665283 
	C2688.368652,2201.328369 2689.791016,2192.676270 2690.467529,2184.083496 
	C2696.199707,2111.273438 2657.483398,2062.423096 2605.698975,2042.404419 
	C2592.803223,2037.419434 2578.887207,2034.122437 2565.149902,2032.484985 
	C2544.025146,2029.966919 2522.661377,2028.728394 2501.377686,2028.421753 
	C2457.414551,2027.788330 2413.437500,2028.104736 2369.466064,2028.107910 
	C2365.645020,2028.108154 2361.824219,2028.680298 2357.437500,2029.032227 
	C2355.170410,2037.898804 2355.985352,2045.861206 2355.982910,2053.696533 
	C2355.932129,2214.926270 2355.944336,2376.156250 2355.946045,2537.385986 
	C2355.946045,2542.049561 2355.682861,2546.736084 2356.060303,2551.369629 
	C2356.364502,2555.102539 2357.453125,2558.771729 2358.257324,2562.786621 
	C2375.218994,2562.786621 2391.083496,2562.786621 2406.660889,2562.786621 
	C2411.204102,2555.423096 2409.556152,2547.911621 2409.569580,2540.737305 
	C2409.695068,2473.447510 2409.619873,2406.157471 2409.680420,2338.867432 
	C2409.686768,2331.708740 2410.187988,2324.550537 2410.486328,2316.690918 
	C2421.503174,2314.650879 2431.149414,2314.526855 2441.065918,2316.658447 
	C2504.897217,2399.008301 2568.514648,2481.082764 2632.352783,2563.441650 
	C2639.718018,2563.441650 2646.321289,2563.441406 2652.924316,2563.441650 
	C2660.252930,2563.441650 2667.583252,2563.542236 2674.909668,2563.411865 
	C2681.301758,2563.297852 2687.832275,2564.120850 2693.511963,2562.653320 
	C2694.059082,2560.565186 2694.562012,2559.696533 2694.328125,2559.389893 
	C2657.994141,2511.769287 2621.606445,2464.189697 2583.520752,2414.321533 
M1831.563232,2149.797607 
	C1838.500244,2142.615967 1845.047485,2135.003906 1852.433105,2128.317871 
	C1949.313232,2040.618530 2108.107422,2048.795898 2192.362793,2146.133057 
	C2196.158203,2150.517822 2200.396484,2154.518799 2204.935547,2159.224365 
	C2217.553223,2149.521240 2229.166260,2140.663574 2240.664307,2131.659180 
	C2242.136230,2130.506348 2243.010498,2128.590088 2244.701660,2126.294922 
	C2242.081299,2122.552979 2239.700684,2118.672852 2236.857422,2115.167480 
	C2207.677734,2079.193604 2171.289551,2052.963135 2128.362305,2035.860718 
	C2070.368408,2012.755859 2010.395264,2009.802490 1949.542114,2020.164673 
	C1853.774170,2036.472168 1769.690308,2107.563232 1738.221924,2198.709717 
	C1718.752563,2255.101318 1717.186523,2312.936279 1732.529297,2370.015381 
	C1759.303833,2469.624268 1821.891968,2536.539307 1922.170898,2565.021973 
	C1979.702881,2581.363037 2038.175049,2581.005615 2096.092773,2566.598145 
	C2151.835449,2552.731445 2199.313232,2524.312988 2237.275879,2480.774658 
	C2240.123047,2477.509521 2242.162354,2473.540039 2244.943115,2469.346191 
	C2237.654541,2463.625977 2231.513916,2458.573975 2225.125977,2453.856689 
	C2218.298096,2448.813965 2212.045166,2442.806396 2203.602783,2439.048828 
	C2197.439697,2445.203857 2191.868408,2450.823730 2186.237305,2456.382812 
	C2150.593994,2491.571777 2108.331055,2514.317627 2058.791260,2522.283447 
	C2024.990356,2527.718750 1990.876221,2527.645508 1957.483643,2519.637695 
	C1873.036743,2499.386230 1814.208130,2448.728027 1789.608276,2365.185791 
	C1767.088623,2288.707764 1779.344482,2216.087402 1831.563232,2149.797607 
M2893.999512,2510.845703 
	C2883.001953,2510.211182 2871.760498,2512.256348 2861.292480,2509.408691 
	C2858.547607,2486.459961 2859.007080,2317.775635 2861.813477,2302.000000 
	C2868.468994,2299.239258 2875.865723,2300.596191 2883.001953,2300.583008 
	C2950.962158,2300.458008 3018.922607,2300.559814 3086.882812,2300.432129 
	C3093.990967,2300.418945 3101.384033,2301.850586 3108.002686,2298.817871 
	C3111.242188,2278.993164 3110.893555,2262.671631 3106.723877,2248.044922 
	C3099.811523,2248.044922 3092.535645,2248.044922 3085.260010,2248.044922 
	C3016.633301,2248.044678 2948.006104,2248.103516 2879.379883,2247.946533 
	C2873.014648,2247.931885 2866.020752,2250.130859 2860.268799,2244.739990 
	C2860.043213,2242.083496 2859.625000,2239.438232 2859.622559,2236.792236 
	C2859.578857,2188.820068 2859.544189,2140.848145 2859.659424,2092.876221 
	C2859.668457,2089.157227 2860.806641,2085.441162 2861.623047,2080.493652 
	C2869.913818,2080.493652 2877.146240,2080.493408 2884.378906,2080.493408 
	C2953.005615,2080.493164 3021.632812,2080.574219 3090.259033,2080.369873 
	C3097.256104,2080.349121 3104.877197,2082.644287 3112.240967,2076.879150 
	C3112.240967,2069.299072 3112.367188,2061.352295 3112.205322,2053.411865 
	C3112.045654,2045.593750 3113.077148,2037.633057 3111.048584,2030.295410 
	C3092.249756,2027.129639 2941.687744,2026.048706 2820.634521,2028.089355 
	C2816.158447,2028.164673 2811.692871,2028.859131 2805.883789,2029.386475 
	C2805.604492,2037.492188 2805.142578,2044.673584 2805.140625,2051.854980 
	C2805.100098,2214.427246 2805.109375,2376.999268 2805.111328,2539.571533 
	C2805.111328,2543.569092 2804.803955,2547.603271 2805.242676,2551.553467 
	C2805.656738,2555.282471 2806.867920,2558.922852 2807.744629,2562.671143 
	C2812.059814,2562.974365 2815.359863,2563.412354 2818.659424,2563.408447 
	C2913.924561,2563.296631 3009.189453,2563.141357 3104.454590,2562.968750 
	C3105.094727,2562.967529 3105.782471,2562.711670 3106.359863,2562.407227 
	C3106.902344,2562.121826 3107.327637,2561.614258 3107.804443,2561.204102 
	C3111.068115,2544.709961 3110.960205,2527.785400 3107.495850,2512.533203 
	C3106.290527,2512.079834 3105.086182,2511.232422 3103.879639,2511.229492 
	C3035.257812,2511.057373 2966.635498,2510.955078 2893.999512,2510.845703 
M3181.187988,2734.231934 
	C3177.123047,2770.409912 3169.726074,2806.188965 3166.835693,2842.029541 
	C3173.712891,2846.333496 3179.273682,2846.032227 3186.072021,2842.535889 
	C3188.084717,2828.004395 3190.156006,2812.947021 3192.259277,2797.894043 
	C3194.376709,2782.738037 3196.406250,2767.568115 3198.694336,2752.437744 
	C3200.918457,2737.732666 3200.931885,2722.574219 3206.535889,2706.914062 
	C3212.968750,2711.673828 3214.656006,2717.486084 3217.197998,2722.588135 
	C3235.888184,2760.101807 3254.415527,2797.696777 3273.211182,2835.157227 
	C3275.102295,2838.926514 3275.797119,2844.633545 3283.698486,2844.146484 
	C3286.161621,2839.793457 3289.286865,2834.821533 3291.886230,2829.588623 
	C3310.236572,2792.644287 3328.430908,2755.621826 3346.827881,2718.700684 
	C3348.702148,2714.938965 3349.102295,2709.320068 3356.768066,2709.520508 
	C3363.062988,2754.011963 3369.383789,2798.687744 3375.674072,2843.146973 
	C3383.321777,2845.709229 3389.457520,2846.695557 3395.204834,2842.484131 
	C3391.641357,2799.801270 3370.076660,2657.747314 3363.927979,2640.523438 
	C3349.036865,2668.695068 3336.709229,2695.599365 3323.417480,2721.994629 
	C3309.718018,2749.199463 3297.124512,2776.976074 3281.753418,2805.684326 
	C3269.555176,2787.220703 3262.322021,2768.620850 3253.186523,2751.076416 
	C3243.664062,2732.788818 3234.870605,2714.123535 3225.609375,2695.698242 
	C3216.723145,2678.018555 3208.766602,2659.831543 3198.545410,2642.465576 
	C3196.571289,2644.280273 3194.961914,2645.029541 3194.809570,2646.005615 
	C3190.411133,2674.245361 3186.158447,2702.507812 3181.187988,2734.231934 
M2511.137207,2833.575439 
	C2535.353271,2819.833008 2549.200684,2798.295166 2554.635498,2771.807861 
	C2557.272705,2758.953125 2557.318359,2745.231445 2556.417969,2732.046631 
	C2553.101562,2683.485840 2519.791260,2649.438477 2471.614014,2643.363281 
	C2445.689941,2640.093994 2419.725586,2640.686768 2393.739990,2640.899902 
	C2391.284424,2640.919922 2388.838379,2642.111084 2386.763184,2642.659424 
	C2384.178711,2659.410645 2383.995605,2825.368408 2386.476074,2843.437500 
	C2389.517090,2844.008301 2392.740723,2845.133789 2395.964844,2845.135498 
	C2419.294434,2845.148193 2442.626221,2845.071289 2465.953125,2844.741455 
	C2480.781006,2844.531982 2495.024902,2841.313477 2511.137207,2833.575439 
M1509.674438,2759.745605 
	C1511.780029,2772.300049 1514.996826,2784.526123 1521.267456,2795.706543 
	C1539.599976,2828.394287 1567.562744,2846.459961 1604.822388,2849.818848 
	C1644.110596,2853.360352 1678.893311,2844.159424 1705.453491,2812.883057 
	C1706.139404,2812.075439 1705.922729,2810.501465 1706.340942,2808.009521 
	C1702.083496,2805.090332 1697.382812,2801.867676 1692.320068,2798.396240 
	C1688.462891,2801.793457 1685.524414,2804.396973 1682.569458,2806.981934 
	C1658.267334,2828.238525 1630.215088,2835.271729 1598.847046,2828.314697 
	C1565.339478,2820.883301 1542.375977,2800.614990 1533.952148,2767.482666 
	C1525.548218,2734.428223 1532.096069,2703.769531 1558.366211,2679.690674 
	C1591.656006,2649.177734 1644.904785,2648.636475 1679.301147,2678.173584 
	C1683.769287,2682.010254 1687.962769,2686.166992 1692.669189,2690.533203 
	C1696.074097,2688.275879 1698.725586,2686.409912 1701.485229,2684.721191 
	C1703.787598,2683.312500 1706.216675,2682.111328 1708.999146,2680.594971 
	C1705.352417,2675.539307 1703.741089,2672.726074 1701.591431,2670.413086 
	C1674.900513,2641.697266 1641.158569,2632.593018 1603.421265,2636.614746 
	C1554.572510,2641.820312 1516.752808,2678.179443 1509.640869,2726.388184 
	C1508.198730,2736.163574 1509.202148,2746.299561 1509.674438,2759.745605 
M2831.030029,2805.659668 
	C2831.029541,2795.659668 2830.745850,2785.649658 2831.109375,2775.662842 
	C2831.466064,2765.856445 2829.200439,2755.760254 2834.002686,2745.044189 
	C2849.110352,2745.044189 2864.410400,2745.397949 2879.686523,2744.944092 
	C2894.785400,2744.495605 2910.111084,2747.104736 2924.966309,2742.886230 
	C2926.882324,2736.337158 2928.426514,2730.612793 2922.006104,2724.473145 
	C2917.158691,2724.473145 2911.229004,2724.473877 2905.299561,2724.472900 
	C2885.299805,2724.469238 2865.299072,2724.570801 2845.301025,2724.379150 
	C2840.885986,2724.336914 2836.481201,2723.255371 2832.357422,2722.691650 
	C2829.650391,2694.720703 2830.268311,2675.351562 2834.489746,2661.275879 
	C2849.400635,2661.275879 2864.698486,2661.530029 2879.983887,2661.204102 
	C2895.187988,2660.880371 2910.506592,2662.757568 2925.476318,2659.780029 
	C2926.916504,2651.072266 2926.916504,2651.072266 2924.330078,2641.104248 
	C2912.180420,2640.967529 2899.619873,2640.770752 2887.058594,2640.700684 
	C2874.392334,2640.629883 2861.722656,2640.514648 2849.059814,2640.732910 
	C2836.596191,2640.947754 2824.020996,2639.705566 2811.236328,2641.742188 
	C2810.472412,2645.438232 2809.498047,2647.963379 2809.494873,2650.489258 
	C2809.410889,2714.431641 2809.428467,2778.373779 2809.428467,2842.175293 
	C2822.782227,2847.539551 2835.560059,2844.762695 2848.046631,2845.176514 
	C2861.365479,2845.617920 2874.718994,2845.583496 2888.040283,2845.185791 
	C2900.426758,2844.815674 2913.096680,2847.267334 2925.216797,2843.025391 
	C2926.730713,2836.316650 2928.488281,2830.510010 2921.806396,2824.685059 
	C2916.240479,2824.685059 2909.625977,2824.686768 2903.011475,2824.684326 
	C2883.011719,2824.676758 2863.010986,2824.775391 2843.013428,2824.562744 
	C2839.287842,2824.523193 2835.575684,2823.230469 2831.743896,2822.494141 
	C2831.470703,2817.500977 2831.253662,2813.539795 2831.030029,2805.659668 
M1966.136719,2844.224365 
	C1974.548340,2827.683838 1982.940186,2811.133545 1991.383057,2794.608887 
	C1994.043945,2789.400879 1996.841553,2784.262695 1999.179565,2779.843018 
	C2022.910522,2777.572510 2071.553223,2778.041504 2087.126221,2780.697754 
	C2097.305664,2801.520264 2107.760010,2822.905029 2117.973389,2843.797363 
	C2125.574707,2845.661133 2131.912109,2846.092041 2138.309570,2843.626709 
	C2134.072510,2830.187988 2057.858398,2663.617432 2047.717163,2645.695557 
	C2046.827759,2644.124023 2044.995117,2643.086426 2042.523315,2640.807617 
	C2039.777100,2645.018555 2036.949585,2648.436768 2035.103638,2652.321533 
	C2006.276978,2712.991211 1977.558105,2773.712402 1948.909546,2834.466309 
	C1947.633301,2837.172363 1947.261597,2840.304688 1946.014160,2844.919434 
	C1952.994873,2844.919434 1958.206909,2844.919434 1966.136719,2844.224365 
M1224.181030,2788.872559 
	C1233.090698,2807.351074 1242.000366,2825.829346 1250.764526,2844.006348 
	C1258.410400,2845.518799 1264.713257,2846.181885 1272.483032,2843.006592 
	C1270.417847,2838.149658 1268.788208,2833.983398 1266.902588,2829.936035 
	C1254.556030,2803.436035 1242.132690,2776.971924 1229.775146,2750.476807 
	C1214.327881,2717.357422 1198.986450,2684.188477 1183.405151,2651.132324 
	C1181.605957,2647.315430 1180.859009,2641.710205 1173.815674,2642.326172 
	C1172.534180,2644.212402 1170.739868,2646.227783 1169.635986,2648.568604 
	C1139.598267,2712.261475 1109.629517,2775.986816 1079.678589,2839.720459 
	C1079.426147,2840.257080 1079.443848,2841.003174 1079.560791,2841.607910 
	C1079.683472,2842.242432 1080.078003,2842.824707 1080.699341,2844.188232 
	C1082.801392,2844.498291 1085.343262,2845.171143 1087.887207,2845.178955 
	C1091.782227,2845.191162 1095.678589,2844.744873 1100.346069,2844.443359 
	C1110.776123,2822.711182 1121.071167,2801.260254 1130.981812,2780.610596 
	C1142.381104,2778.827393 1205.279297,2777.794678 1213.936890,2778.788818 
	C1218.535278,2779.316895 1220.777100,2782.340088 1224.181030,2788.872559 
M3671.116699,2703.312744 
	C3678.095703,2714.629150 3684.783447,2726.140137 3692.154541,2737.194824 
	C3697.189453,2744.746826 3699.062012,2752.651367 3698.910645,2761.618652 
	C3698.573975,2781.565430 3698.756348,2801.521729 3698.837158,2821.473877 
	C3698.866455,2828.688477 3699.208740,2835.902344 3699.414551,2843.341797 
	C3706.771240,2845.794434 3712.976807,2846.561035 3719.675293,2841.807129 
	C3719.675293,2815.508789 3720.040283,2788.927002 3719.494141,2762.364014 
	C3719.279053,2751.894287 3722.067627,2743.125000 3727.525391,2734.350586 
	C3744.377441,2707.257568 3760.740967,2679.859131 3777.113037,2652.471191 
	C3778.901611,2649.479248 3779.518066,2645.787109 3780.939697,2641.661133 
	C3772.833496,2641.661133 3766.420654,2641.661133 3759.687012,2641.661133 
	C3742.582520,2668.261963 3727.469482,2695.424316 3708.946533,2723.228516 
	C3698.199951,2709.015625 3690.675293,2695.088867 3682.208008,2681.831055 
	C3673.653076,2668.435791 3665.271729,2654.929443 3656.889893,2641.591309 
	C3649.448486,2641.591309 3643.024170,2641.591309 3636.451416,2641.591309 
	C3636.451416,2643.770996 3635.954102,2645.362793 3636.524902,2646.314453 
	C3647.452881,2664.541016 3658.506348,2682.692139 3671.116699,2703.312744 
z"/>
<path fill="#35BAB2" opacity="1.000000" stroke="none" 
	d="
M12.184935,8.101594 
	C12.053677,16.094776 11.807536,24.087955 11.807425,32.081139 
	C11.790674,1236.807983 11.791553,2441.534912 11.795522,3646.261719 
	C11.795542,3652.258545 11.848735,3658.255371 11.938549,3666.125977 
	C9.334784,3668.000000 6.669567,3668.000000 4.003263,3668.000000 
	C4.002175,2446.666748 4.002175,1225.333374 4.002285,4.000000 
	C5.334931,4.000000 6.667465,4.000000 10.048913,5.025278 
	C12.126863,6.734235 12.155898,7.417914 12.184935,8.101594 
z"/>
<path fill="#13AEA5" opacity="1.000000" stroke="none" 
	d="
M13.973677,8.072242 
	C12.155898,7.417914 12.126863,6.734235 12.048913,5.025278 
	C1624.000000,4.000000 3236.000000,4.000000 4848.000000,6.000000 
	C3453.842041,8.006044 2059.683838,8.011151 665.525757,8.019114 
	C448.937988,8.020350 232.350204,8.034637 13.973677,8.072242 
z"/>
<path fill="#F6FCFC" opacity="1.000000" stroke="none" 
	d="
M2085.918213,953.973389 
	C2155.151855,893.549133 2233.272705,853.938416 2321.867676,834.967346 
	C2530.580566,790.275146 2745.713135,877.938110 2863.754883,1056.103027 
	C2921.303711,1142.963501 2950.483887,1238.844971 2950.289551,1342.779663 
	C2949.809814,1599.462891 2770.736328,1796.601318 2552.982178,1848.681885 
	C2285.654541,1912.619141 2015.425293,1760.157715 1933.986938,1497.946411 
	C1876.131592,1311.666748 1925.255249,1105.101318 2074.493408,964.315491 
	C2077.887207,961.113892 2081.406494,958.045288 2085.918213,953.973389 
M2736.007568,969.883606 
	C2612.748047,872.458252 2473.668213,838.562134 2320.796875,873.638550 
	C2070.387451,931.095154 1905.045166,1176.989258 1957.307617,1438.657471 
	C2002.720337,1666.031128 2197.979004,1816.174683 2405.695068,1825.196411 
	C2501.502441,1829.357666 2590.974854,1808.539185 2673.699219,1760.132812 
	C2854.296875,1654.455322 2948.333984,1444.831421 2900.722900,1235.810425 
	C2876.508545,1129.504395 2821.499023,1041.816772 2736.007568,969.883606 
z"/>
<path fill="#F8FDFC" opacity="1.000000" stroke="none" 
	d="
M3211.323975,2563.453613 
	C3200.346191,2563.129150 3191.042725,2564.337891 3181.978271,2562.208008 
	C3181.527588,2559.227539 3180.812500,2557.282227 3181.015381,2555.437988 
	C3187.136230,2499.795898 3253.270020,2047.932373 3257.858154,2029.873657 
	C3262.284668,2026.943726 3265.439453,2028.967896 3267.628906,2032.823120 
	C3270.586182,2038.029297 3273.212891,2043.427734 3275.874268,2048.796631 
	C3340.938477,2180.049072 3405.984619,2311.310059 3471.050781,2442.561523 
	C3474.286133,2449.087891 3477.667969,2455.541260 3481.128906,2462.317383 
	C3488.824707,2458.812988 3489.908691,2451.756104 3492.697021,2446.091064 
	C3533.865234,2362.451904 3574.927246,2278.760498 3615.995605,2195.071777 
	C3640.344482,2145.454102 3664.651611,2095.815674 3689.007080,2046.201050 
	C3691.354004,2041.420166 3693.452881,2036.408936 3696.557861,2032.154907 
	C3698.112549,2030.024902 3701.677002,2029.361572 3704.061768,2028.170166 
	C3705.720459,2030.328735 3707.043945,2031.265503 3707.204346,2032.370972 
	C3732.729492,2208.260498 3758.170898,2384.161865 3783.768311,2561.116455 
	C3766.306152,2565.454590 3749.921875,2562.983643 3732.262695,2562.918945 
	C3725.411621,2532.111816 3722.939453,2500.975098 3718.434326,2470.179199 
	C3713.807861,2438.552002 3709.368896,2406.897217 3704.955811,2375.239502 
	C3700.634521,2344.239258 3696.467529,2313.217773 3692.199219,2282.209961 
	C3687.959717,2251.412109 3683.678223,2220.619873 3679.418701,2189.853027 
	C3671.713135,2189.907471 3671.333740,2195.641602 3669.494629,2199.328125 
	C3647.499023,2243.419678 3625.735352,2287.626953 3603.911133,2331.803955 
	C3568.815430,2402.845703 3533.723877,2473.889893 3498.612549,2544.924072 
	C3496.252930,2549.697754 3494.034668,2554.579102 3491.226318,2559.083252 
	C3487.628418,2564.854004 3477.808105,2565.192871 3474.161621,2559.605957 
	C3471.269531,2555.175781 3469.158203,2550.227783 3466.790527,2545.464844 
	C3409.886230,2430.983154 3353.016113,2316.484619 3296.033203,2202.041992 
	C3293.211670,2196.375000 3291.870117,2189.473145 3284.051514,2184.783691 
	C3274.134521,2248.578613 3266.530273,2311.230225 3257.741455,2373.704834 
	C3248.936035,2436.297363 3240.649902,2498.962891 3232.010010,2562.524170 
	C3224.855469,2562.876221 3218.993408,2563.164795 3211.323975,2563.453613 
z"/>
<path fill="#F9FDFD" opacity="1.000000" stroke="none" 
	d="
M1592.525146,2135.324219 
	C1646.609863,2217.434570 1653.909424,2304.246338 1623.744995,2394.530762 
	C1597.767212,2472.284180 1517.072388,2557.201416 1407.773315,2572.885986 
	C1367.758301,2578.628174 1328.147705,2577.852783 1288.755737,2568.526611 
	C1192.337769,2545.699463 1111.818237,2468.147217 1086.401489,2372.248535 
	C1049.530884,2233.134521 1119.338257,2080.432129 1263.310425,2030.080444 
	C1356.600952,1997.453491 1492.169678,2009.154175 1580.817505,2119.836670 
	C1584.563232,2124.513428 1588.098633,2129.358643 1592.525146,2135.324219 
M1213.913574,2119.710205 
	C1208.503906,2124.647949 1202.781006,2129.286133 1197.733032,2134.569580 
	C1144.386841,2190.404053 1125.632690,2257.012939 1135.022095,2332.927246 
	C1146.145142,2422.858643 1220.691406,2499.876221 1305.389160,2518.705322 
	C1338.318604,2526.026123 1371.564087,2526.799072 1404.562500,2519.693359 
	C1468.173096,2505.995605 1518.417114,2472.557129 1552.542480,2416.487061 
	C1577.572998,2375.360840 1587.096313,2330.348145 1584.649048,2282.575928 
	C1580.936035,2210.096191 1550.052124,2152.010254 1490.845337,2110.012451 
	C1436.489502,2071.456055 1376.031494,2058.535400 1310.553101,2072.152100 
	C1275.384399,2079.465820 1244.208862,2095.648926 1213.913574,2119.710205 
z"/>
<path fill="#F9FDFD" opacity="1.000000" stroke="none" 
	d="
M2584.371094,2415.464844 
	C2621.606445,2464.189697 2657.994141,2511.769287 2694.328125,2559.389893 
	C2694.562012,2559.696533 2694.059082,2560.565186 2693.511963,2562.653320 
	C2687.832275,2564.120850 2681.301758,2563.297852 2674.909668,2563.411865 
	C2667.583252,2563.542236 2660.252930,2563.441650 2652.924316,2563.441650 
	C2646.321289,2563.441406 2639.718018,2563.441650 2632.352783,2563.441650 
	C2568.514648,2481.082764 2504.897217,2399.008301 2441.065918,2316.658447 
	C2431.149414,2314.526855 2421.503174,2314.650879 2410.486328,2316.690918 
	C2410.187988,2324.550537 2409.686768,2331.708740 2409.680420,2338.867432 
	C2409.619873,2406.157471 2409.695068,2473.447510 2409.569580,2540.737305 
	C2409.556152,2547.911621 2411.204102,2555.423096 2406.660889,2562.786621 
	C2391.083496,2562.786621 2375.218994,2562.786621 2358.257324,2562.786621 
	C2357.453125,2558.771729 2356.364502,2555.102539 2356.060303,2551.369629 
	C2355.682861,2546.736084 2355.946045,2542.049561 2355.946045,2537.385986 
	C2355.944336,2376.156250 2355.932129,2214.926270 2355.982910,2053.696533 
	C2355.985352,2045.861206 2355.170410,2037.898804 2357.437500,2029.032227 
	C2361.824219,2028.680298 2365.645020,2028.108154 2369.466064,2028.107910 
	C2413.437500,2028.104736 2457.414551,2027.788330 2501.377686,2028.421753 
	C2522.661377,2028.728394 2544.025146,2029.966919 2565.149902,2032.484985 
	C2578.887207,2034.122437 2592.803223,2037.419434 2605.698975,2042.404419 
	C2657.483398,2062.423096 2696.199707,2111.273438 2690.467529,2184.083496 
	C2689.791016,2192.676270 2688.368652,2201.328369 2686.191650,2209.665283 
	C2674.776855,2253.375488 2647.597900,2283.319824 2605.745117,2299.912842 
	C2588.310791,2306.824951 2570.041016,2310.507080 2551.387695,2312.273682 
	C2538.295166,2313.513428 2525.198975,2314.715820 2512.773926,2315.872803 
	C2512.003418,2317.710693 2511.607178,2318.308105 2511.528564,2318.944580 
	C2511.455811,2319.536621 2511.525879,2320.319336 2511.865967,2320.763672 
	C2535.729492,2351.966309 2559.626465,2383.142822 2584.371094,2415.464844 
M2438.607422,2080.434570 
	C2429.575439,2081.097168 2420.258057,2078.969727 2410.766602,2082.316650 
	C2410.321533,2086.312256 2409.654541,2089.531494 2409.650635,2092.751709 
	C2409.588135,2145.312744 2409.555908,2197.874268 2409.726562,2250.434570 
	C2409.738281,2254.111084 2411.391357,2257.782471 2412.202637,2261.132324 
	C2415.257324,2261.714111 2417.203613,2262.396973 2419.154297,2262.409668 
	C2452.415771,2262.625732 2485.680664,2263.060303 2518.937988,2262.750244 
	C2530.867920,2262.638916 2542.856934,2261.203369 2554.683838,2259.456787 
	C2574.053467,2256.595947 2592.437012,2250.608398 2606.845947,2236.611816 
	C2633.025635,2211.181641 2641.711182,2180.196045 2631.538086,2145.329102 
	C2621.489258,2110.886719 2597.489258,2090.318848 2561.991455,2084.754639 
	C2544.968994,2082.086182 2527.590576,2081.149902 2510.336914,2080.627441 
	C2487.736084,2079.943359 2465.099609,2080.443604 2438.607422,2080.434570 
z"/>
<path fill="#F9FDFD" opacity="1.000000" stroke="none" 
	d="
M1830.623535,2150.881836 
	C1779.344482,2216.087402 1767.088623,2288.707764 1789.608276,2365.185791 
	C1814.208130,2448.728027 1873.036743,2499.386230 1957.483643,2519.637695 
	C1990.876221,2527.645508 2024.990356,2527.718750 2058.791260,2522.283447 
	C2108.331055,2514.317627 2150.593994,2491.571777 2186.237305,2456.382812 
	C2191.868408,2450.823730 2197.439697,2445.203857 2203.602783,2439.048828 
	C2212.045166,2442.806396 2218.298096,2448.813965 2225.125977,2453.856689 
	C2231.513916,2458.573975 2237.654541,2463.625977 2244.943115,2469.346191 
	C2242.162354,2473.540039 2240.123047,2477.509521 2237.275879,2480.774658 
	C2199.313232,2524.312988 2151.835449,2552.731445 2096.092773,2566.598145 
	C2038.175049,2581.005615 1979.702881,2581.363037 1922.170898,2565.021973 
	C1821.891968,2536.539307 1759.303833,2469.624268 1732.529297,2370.015381 
	C1717.186523,2312.936279 1718.752563,2255.101318 1738.221924,2198.709717 
	C1769.690308,2107.563232 1853.774170,2036.472168 1949.542114,2020.164673 
	C2010.395264,2009.802490 2070.368408,2012.755859 2128.362305,2035.860718 
	C2171.289551,2052.963135 2207.677734,2079.193604 2236.857422,2115.167480 
	C2239.700684,2118.672852 2242.081299,2122.552979 2244.701660,2126.294922 
	C2243.010498,2128.590088 2242.136230,2130.506348 2240.664307,2131.659180 
	C2229.166260,2140.663574 2217.553223,2149.521240 2204.935547,2159.224365 
	C2200.396484,2154.518799 2196.158203,2150.517822 2192.362793,2146.133057 
	C2108.107422,2048.795898 1949.313232,2040.618530 1852.433105,2128.317871 
	C1845.047485,2135.003906 1838.500244,2142.615967 1830.623535,2150.881836 
z"/>
<path fill="#F8FDFC" opacity="1.000000" stroke="none" 
	d="
M2896.006348,2510.845703 
	C2966.635498,2510.955078 3035.257812,2511.057373 3103.879639,2511.229492 
	C3105.086182,2511.232422 3106.290527,2512.079834 3107.495117,2512.535156 
	C3110.960205,2527.785400 3111.068115,2544.709961 3107.804443,2561.204102 
	C3107.327637,2561.614258 3106.902344,2562.121826 3106.359863,2562.407227 
	C3105.782471,2562.711670 3105.094727,2562.967529 3104.454590,2562.968750 
	C3009.189453,2563.141357 2913.924561,2563.296631 2818.659424,2563.408447 
	C2815.359863,2563.412354 2812.059814,2562.974365 2807.744629,2562.671143 
	C2806.867920,2558.922852 2805.656738,2555.282471 2805.242676,2551.553467 
	C2804.803955,2547.603271 2805.111328,2543.569092 2805.111328,2539.571533 
	C2805.109375,2376.999268 2805.100098,2214.427246 2805.140625,2051.854980 
	C2805.142578,2044.673584 2805.604492,2037.492188 2805.883789,2029.386475 
	C2811.692871,2028.859131 2816.158447,2028.164673 2820.634521,2028.089355 
	C2941.687744,2026.048706 3092.249756,2027.129639 3111.048584,2030.295410 
	C3113.077148,2037.633057 3112.045654,2045.593750 3112.205322,2053.411865 
	C3112.367188,2061.352295 3112.240967,2069.299072 3112.240967,2076.879150 
	C3104.877197,2082.644287 3097.256104,2080.349121 3090.259033,2080.369873 
	C3021.632812,2080.574219 2953.005615,2080.493164 2884.378906,2080.493408 
	C2877.146240,2080.493408 2869.913818,2080.493652 2861.623047,2080.493652 
	C2860.806641,2085.441162 2859.668457,2089.157227 2859.659424,2092.876221 
	C2859.544189,2140.848145 2859.578857,2188.820068 2859.622559,2236.792236 
	C2859.625000,2239.438232 2860.043213,2242.083496 2860.268799,2244.739990 
	C2866.020752,2250.130859 2873.014648,2247.931885 2879.379883,2247.946533 
	C2948.006104,2248.103516 3016.633301,2248.044678 3085.260010,2248.044922 
	C3092.535645,2248.044922 3099.811523,2248.044922 3106.723877,2248.044922 
	C3110.893555,2262.671631 3111.242188,2278.993164 3108.002686,2298.817871 
	C3101.384033,2301.850586 3093.990967,2300.418945 3086.882812,2300.432129 
	C3018.922607,2300.559814 2950.962158,2300.458008 2883.001953,2300.583008 
	C2875.865723,2300.596191 2868.468994,2299.239258 2861.813477,2302.000000 
	C2859.007080,2317.775635 2858.547607,2486.459961 2861.292480,2509.408691 
	C2871.760498,2512.256348 2883.001953,2510.211182 2896.006348,2510.845703 
z"/>
<path fill="#EDF9F8" opacity="1.000000" stroke="none" 
	d="
M3181.535156,2732.499268 
	C3186.158447,2702.507812 3190.411133,2674.245361 3194.809570,2646.005615 
	C3194.961914,2645.029541 3196.571289,2644.280273 3198.545410,2642.465576 
	C3208.766602,2659.831543 3216.723145,2678.018555 3225.609375,2695.698242 
	C3234.870605,2714.123535 3243.664062,2732.788818 3253.186523,2751.076416 
	C3262.322021,2768.620850 3269.555176,2787.220703 3281.753418,2805.684326 
	C3297.124512,2776.976074 3309.718018,2749.199463 3323.417480,2721.994629 
	C3336.709229,2695.599365 3349.036865,2668.695068 3363.927979,2640.523438 
	C3370.076660,2657.747314 3391.641357,2799.801270 3395.204834,2842.484131 
	C3389.457520,2846.695557 3383.321777,2845.709229 3375.674072,2843.146973 
	C3369.383789,2798.687744 3363.062988,2754.011963 3356.768066,2709.520508 
	C3349.102295,2709.320068 3348.702148,2714.938965 3346.827881,2718.700684 
	C3328.430908,2755.621826 3310.236572,2792.644287 3291.886230,2829.588623 
	C3289.286865,2834.821533 3286.161621,2839.793457 3283.698486,2844.146484 
	C3275.797119,2844.633545 3275.102295,2838.926514 3273.211182,2835.157227 
	C3254.415527,2797.696777 3235.888184,2760.101807 3217.197998,2722.588135 
	C3214.656006,2717.486084 3212.968750,2711.673828 3206.535889,2706.914062 
	C3200.931885,2722.574219 3200.918457,2737.732666 3198.694336,2752.437744 
	C3196.406250,2767.568115 3194.376709,2782.738037 3192.259277,2797.894043 
	C3190.156006,2812.947021 3188.084717,2828.004395 3186.072021,2842.535889 
	C3179.273682,2846.032227 3173.712891,2846.333496 3166.835693,2842.029541 
	C3169.726074,2806.188965 3177.123047,2770.409912 3181.535156,2732.499268 
z"/>
<path fill="#EDF9F8" opacity="1.000000" stroke="none" 
	d="
M2509.835205,2834.324463 
	C2495.024902,2841.313477 2480.781006,2844.531982 2465.953125,2844.741455 
	C2442.626221,2845.071289 2419.294434,2845.148193 2395.964844,2845.135498 
	C2392.740723,2845.133789 2389.517090,2844.008301 2386.476074,2843.437500 
	C2383.995605,2825.368408 2384.178711,2659.410645 2386.763184,2642.659424 
	C2388.838379,2642.111084 2391.284424,2640.919922 2393.739990,2640.899902 
	C2419.725586,2640.686768 2445.689941,2640.093994 2471.614014,2643.363281 
	C2519.791260,2649.438477 2553.101562,2683.485840 2556.417969,2732.046631 
	C2557.318359,2745.231445 2557.272705,2758.953125 2554.635498,2771.807861 
	C2549.200684,2798.295166 2535.353271,2819.833008 2509.835205,2834.324463 
M2535.524414,2759.820557 
	C2535.670898,2752.507080 2536.296631,2745.166504 2535.884521,2737.884521 
	C2533.620850,2697.902100 2507.174805,2669.116211 2467.507080,2664.329590 
	C2451.031982,2662.341553 2434.339111,2662.067871 2417.730469,2661.353760 
	C2413.996338,2661.192871 2410.201172,2662.450928 2406.139404,2663.103027 
	C2405.641357,2666.681396 2404.973633,2669.234131 2404.977051,2671.785889 
	C2405.045410,2721.029785 2405.180176,2770.273438 2405.395752,2819.517090 
	C2405.400879,2820.681641 2406.492432,2821.841553 2407.077881,2823.005127 
	C2408.205811,2823.638184 2409.349854,2824.849365 2410.459717,2824.818604 
	C2433.025146,2824.196289 2455.863037,2825.370117 2478.078125,2822.200439 
	C2505.245117,2818.324219 2523.335693,2801.142090 2532.002686,2774.764160 
	C2533.246094,2770.979736 2534.065186,2767.056152 2535.524414,2759.820557 
z"/>
<path fill="#EDF9F8" opacity="1.000000" stroke="none" 
	d="
M1509.376221,2758.007324 
	C1509.202148,2746.299561 1508.198730,2736.163574 1509.640869,2726.388184 
	C1516.752808,2678.179443 1554.572510,2641.820312 1603.421265,2636.614746 
	C1641.158569,2632.593018 1674.900513,2641.697266 1701.591431,2670.413086 
	C1703.741089,2672.726074 1705.352417,2675.539307 1708.999146,2680.594971 
	C1706.216675,2682.111328 1703.787598,2683.312500 1701.485229,2684.721191 
	C1698.725586,2686.409912 1696.074097,2688.275879 1692.669189,2690.533203 
	C1687.962769,2686.166992 1683.769287,2682.010254 1679.301147,2678.173584 
	C1644.904785,2648.636475 1591.656006,2649.177734 1558.366211,2679.690674 
	C1532.096069,2703.769531 1525.548218,2734.428223 1533.952148,2767.482666 
	C1542.375977,2800.614990 1565.339478,2820.883301 1598.847046,2828.314697 
	C1630.215088,2835.271729 1658.267334,2828.238525 1682.569458,2806.981934 
	C1685.524414,2804.396973 1688.462891,2801.793457 1692.320068,2798.396240 
	C1697.382812,2801.867676 1702.083496,2805.090332 1706.340942,2808.009521 
	C1705.922729,2810.501465 1706.139404,2812.075439 1705.453491,2812.883057 
	C1678.893311,2844.159424 1644.110596,2853.360352 1604.822388,2849.818848 
	C1567.562744,2846.459961 1539.599976,2828.394287 1521.267456,2795.706543 
	C1514.996826,2784.526123 1511.780029,2772.300049 1509.376221,2758.007324 
z"/>
<path fill="#EDF9F8" opacity="1.000000" stroke="none" 
	d="
M2831.033447,2807.619141 
	C2831.253662,2813.539795 2831.470703,2817.500977 2831.743896,2822.494141 
	C2835.575684,2823.230469 2839.287842,2824.523193 2843.013428,2824.562744 
	C2863.010986,2824.775391 2883.011719,2824.676758 2903.011475,2824.684326 
	C2909.625977,2824.686768 2916.240479,2824.685059 2921.806396,2824.685059 
	C2928.488281,2830.510010 2926.730713,2836.316650 2925.216797,2843.025391 
	C2913.096680,2847.267334 2900.426758,2844.815674 2888.040283,2845.185791 
	C2874.718994,2845.583496 2861.365479,2845.617920 2848.046631,2845.176514 
	C2835.560059,2844.762695 2822.782227,2847.539551 2809.428467,2842.175293 
	C2809.428467,2778.373779 2809.410889,2714.431641 2809.494873,2650.489258 
	C2809.498047,2647.963379 2810.472412,2645.438232 2811.236328,2641.742188 
	C2824.020996,2639.705566 2836.596191,2640.947754 2849.059814,2640.732910 
	C2861.722656,2640.514648 2874.392334,2640.629883 2887.058594,2640.700684 
	C2899.619873,2640.770752 2912.180420,2640.967529 2924.330078,2641.104248 
	C2926.916504,2651.072266 2926.916504,2651.072266 2925.476318,2659.780029 
	C2910.506592,2662.757568 2895.187988,2660.880371 2879.983887,2661.204102 
	C2864.698486,2661.530029 2849.400635,2661.275879 2834.489746,2661.275879 
	C2830.268311,2675.351562 2829.650391,2694.720703 2832.357422,2722.691650 
	C2836.481201,2723.255371 2840.885986,2724.336914 2845.301025,2724.379150 
	C2865.299072,2724.570801 2885.299805,2724.469238 2905.299561,2724.472900 
	C2911.229004,2724.473877 2917.158691,2724.473145 2922.006104,2724.473145 
	C2928.426514,2730.612793 2926.882324,2736.337158 2924.966309,2742.886230 
	C2910.111084,2747.104736 2894.785400,2744.495605 2879.686523,2744.944092 
	C2864.410400,2745.397949 2849.110352,2745.044189 2834.002686,2745.044189 
	C2829.200439,2755.760254 2831.466064,2765.856445 2831.109375,2775.662842 
	C2830.745850,2785.649658 2831.029541,2795.659668 2831.033447,2807.619141 
z"/>
<path fill="#EDF9F8" opacity="1.000000" stroke="none" 
	d="
M1964.777832,2844.571777 
	C1958.206909,2844.919434 1952.994873,2844.919434 1946.014160,2844.919434 
	C1947.261597,2840.304688 1947.633301,2837.172363 1948.909546,2834.466309 
	C1977.558105,2773.712402 2006.276978,2712.991211 2035.103638,2652.321533 
	C2036.949585,2648.436768 2039.777100,2645.018555 2042.523315,2640.807617 
	C2044.995117,2643.086426 2046.827759,2644.124023 2047.717163,2645.695557 
	C2057.858398,2663.617432 2134.072510,2830.187988 2138.309570,2843.626709 
	C2131.912109,2846.092041 2125.574707,2845.661133 2117.973389,2843.797363 
	C2107.760010,2822.905029 2097.305664,2801.520264 2087.126221,2780.697754 
	C2071.553223,2778.041504 2022.910522,2777.572510 1999.179565,2779.843018 
	C1996.841553,2784.262695 1994.043945,2789.400879 1991.383057,2794.608887 
	C1982.940186,2811.133545 1974.548340,2827.683838 1964.777832,2844.571777 
M2036.225830,2699.134033 
	C2031.735840,2708.692627 2026.932129,2718.119385 2022.846069,2727.847656 
	C2018.916748,2737.203369 2011.965942,2745.592041 2011.556396,2757.377197 
	C2023.186035,2759.575928 2033.693848,2758.734131 2044.082153,2758.575439 
	C2054.265381,2758.419922 2064.750000,2760.283936 2076.473145,2756.322021 
	C2065.721924,2733.525146 2056.577881,2711.771729 2044.960327,2691.163574 
	C2044.521484,2690.385010 2042.808350,2690.324707 2041.397461,2689.826904 
	C2040.088135,2692.037842 2038.750977,2694.295898 2036.225830,2699.134033 
z"/>
<path fill="#EDF9F8" opacity="1.000000" stroke="none" 
	d="
M1223.513672,2787.345703 
	C1220.777100,2782.340088 1218.535278,2779.316895 1213.936890,2778.788818 
	C1205.279297,2777.794678 1142.381104,2778.827393 1130.981812,2780.610596 
	C1121.071167,2801.260254 1110.776123,2822.711182 1100.346069,2844.443359 
	C1095.678589,2844.744873 1091.782227,2845.191162 1087.887207,2845.178955 
	C1085.343262,2845.171143 1082.801392,2844.498291 1080.699341,2844.188232 
	C1080.078003,2842.824707 1079.683472,2842.242432 1079.560791,2841.607910 
	C1079.443848,2841.003174 1079.426147,2840.257080 1079.678589,2839.720459 
	C1109.629517,2775.986816 1139.598267,2712.261475 1169.635986,2648.568604 
	C1170.739868,2646.227783 1172.534180,2644.212402 1173.815674,2642.326172 
	C1180.859009,2641.710205 1181.605957,2647.315430 1183.405151,2651.132324 
	C1198.986450,2684.188477 1214.327881,2717.357422 1229.775146,2750.476807 
	C1242.132690,2776.971924 1254.556030,2803.436035 1266.902588,2829.936035 
	C1268.788208,2833.983398 1270.417847,2838.149658 1272.483032,2843.006592 
	C1264.713257,2846.181885 1258.410400,2845.518799 1250.764526,2844.006348 
	C1242.000366,2825.829346 1233.090698,2807.351074 1223.513672,2787.345703 
M1174.171631,2758.690430 
	C1179.469604,2758.689941 1184.775146,2758.867920 1190.063354,2758.640381 
	C1195.746826,2758.395508 1201.764526,2759.833740 1207.881714,2756.256348 
	C1207.038574,2753.193604 1206.701904,2750.636719 1205.662964,2748.406738 
	C1197.279175,2730.408936 1188.827515,2712.441406 1180.196655,2694.561279 
	C1179.248901,2692.597900 1177.041260,2691.242432 1174.481323,2688.660156 
	C1170.294800,2697.240479 1166.809204,2704.322021 1163.379272,2711.429932 
	C1159.640015,2719.178711 1155.731934,2726.856445 1152.308105,2734.743652 
	C1149.270020,2741.742432 1144.229980,2748.178467 1144.168701,2757.442627 
	C1153.564331,2759.387695 1162.081299,2758.441650 1174.171631,2758.690430 
z"/>
<path fill="#EDF9F8" opacity="1.000000" stroke="none" 
	d="
M3670.325195,2702.085938 
	C3658.506348,2682.692139 3647.452881,2664.541016 3636.524902,2646.314453 
	C3635.954102,2645.362793 3636.451416,2643.770996 3636.451416,2641.591309 
	C3643.024170,2641.591309 3649.448486,2641.591309 3656.889893,2641.591309 
	C3665.271729,2654.929443 3673.653076,2668.435791 3682.208008,2681.831055 
	C3690.675293,2695.088867 3698.199951,2709.015625 3708.946533,2723.228516 
	C3727.469482,2695.424316 3742.582520,2668.261963 3759.687012,2641.661133 
	C3766.420654,2641.661133 3772.833496,2641.661133 3780.939697,2641.661133 
	C3779.518066,2645.787109 3778.901611,2649.479248 3777.113037,2652.471191 
	C3760.740967,2679.859131 3744.377441,2707.257568 3727.525391,2734.350586 
	C3722.067627,2743.125000 3719.279053,2751.894287 3719.494141,2762.364014 
	C3720.040283,2788.927002 3719.675293,2815.508789 3719.675293,2841.807129 
	C3712.976807,2846.561035 3706.771240,2845.794434 3699.414551,2843.341797 
	C3699.208740,2835.902344 3698.866455,2828.688477 3698.837158,2821.473877 
	C3698.756348,2801.521729 3698.573975,2781.565430 3698.910645,2761.618652 
	C3699.062012,2752.651367 3697.189453,2744.746826 3692.154541,2737.194824 
	C3684.783447,2726.140137 3678.095703,2714.629150 3670.325195,2702.085938 
z"/>
<path fill="#06AAA0" opacity="1.000000" stroke="none" 
	d="
M2737.092041,970.803650 
	C2821.499023,1041.816772 2876.508545,1129.504395 2900.722900,1235.810425 
	C2948.333984,1444.831421 2854.296875,1654.455322 2673.699219,1760.132812 
	C2590.974854,1808.539185 2501.502441,1829.357666 2405.695068,1825.196411 
	C2197.979004,1816.174683 2002.720337,1666.031128 1957.307617,1438.657471 
	C1905.045166,1176.989258 2070.387451,931.095154 2320.796875,873.638550 
	C2473.668213,838.562134 2612.748047,872.458252 2737.092041,970.803650 
M2081.030029,1079.280518 
	C2077.212158,1085.770752 2069.467041,1090.082642 2069.134033,1099.172974 
	C2088.842529,1102.319458 2108.371826,1097.621216 2128.794189,1104.029663 
	C2120.704834,1116.079956 2113.163574,1126.818237 2106.155273,1137.893677 
	C2099.095703,1149.050171 2092.565674,1160.542114 2086.272217,1171.101562 
	C2064.599121,1174.686035 2043.912598,1176.331665 2025.678101,1185.313110 
	C1971.790405,1313.590698 1991.344849,1480.266113 2071.812256,1587.620117 
	C2123.350342,1595.523193 2189.004639,1579.000732 2216.431152,1550.725098 
	C2211.908447,1545.221680 2207.360596,1539.588745 2202.708252,1534.043579 
	C2179.322021,1506.168457 2161.492676,1475.068848 2149.822021,1440.648315 
	C2132.318604,1389.025269 2126.915527,1336.664062 2143.025391,1283.576660 
	C2151.335205,1256.192749 2160.332031,1229.017456 2169.023438,1201.749390 
	C2170.595703,1196.816284 2172.189453,1191.890137 2174.215332,1185.585205 
	C2165.609131,1182.985840 2158.124023,1180.532104 2150.529541,1178.483643 
	C2142.304443,1176.265015 2133.977539,1174.423828 2125.566895,1172.387085 
	C2133.016357,1153.096069 2149.837158,1129.019775 2168.549316,1110.761230 
	C2172.975586,1111.676270 2178.239990,1112.269775 2183.184570,1113.859009 
	C2313.147705,1155.627930 2397.571777,1286.249390 2374.437500,1426.840332 
	C2362.461182,1499.624268 2326.064697,1558.678345 2267.691406,1604.014648 
	C2264.073730,1606.824219 2260.699463,1609.947266 2256.540039,1613.497803 
	C2262.894531,1624.086304 2267.678223,1634.894897 2277.610352,1642.256470 
	C2284.495605,1638.425537 2290.865234,1634.825684 2297.285400,1631.318481 
	C2339.120117,1608.465698 2384.092041,1597.430176 2431.547119,1597.633301 
	C2480.417969,1597.842529 2526.437988,1609.958252 2569.040283,1634.320679 
	C2574.083740,1637.204956 2579.337891,1639.720703 2584.916748,1642.627075 
	C2592.406738,1632.811401 2599.072266,1623.934204 2603.643311,1614.499268 
	C2602.829834,1612.758179 2602.705322,1611.969116 2602.243652,1611.585571 
	C2598.153076,1608.185791 2593.961426,1604.907959 2589.876709,1601.501587 
	C2504.293701,1530.131104 2467.731934,1438.929688 2488.195801,1329.446289 
	C2508.342041,1221.661621 2574.321289,1150.340698 2677.718262,1113.873779 
	C2682.582520,1112.158325 2687.888428,1111.696045 2693.987549,1110.445312 
	C2702.447266,1121.314575 2711.137939,1131.394287 2718.569580,1142.329590 
	C2726.190186,1153.542725 2735.713379,1163.979858 2738.300293,1177.758423 
	C2723.693848,1181.395142 2710.093994,1184.569336 2696.640869,1188.275879 
	C2693.166260,1189.233032 2690.152588,1191.862061 2686.758057,1193.820557 
	C2688.491211,1198.650391 2689.939697,1202.357422 2691.159668,1206.138306 
	C2700.152344,1234.012207 2709.754639,1261.712036 2717.862061,1289.842041 
	C2724.887451,1314.217529 2729.251953,1339.222412 2727.209473,1364.838989 
	C2725.619141,1384.781006 2722.974365,1404.567383 2717.846191,1423.971313 
	C2706.072021,1468.518555 2685.246826,1508.279053 2655.293457,1543.299561 
	C2651.181152,1548.107666 2645.876221,1552.287598 2643.898926,1559.453247 
	C2688.792480,1588.693726 2736.593262,1600.693481 2788.302002,1594.520020 
	C2877.187256,1476.121826 2884.647461,1300.285156 2833.916748,1190.505615 
	C2816.289551,1182.550781 2796.988281,1180.678833 2777.543701,1177.527832 
	C2772.947754,1169.307373 2768.574219,1161.105957 2763.839355,1153.118774 
	C2758.745605,1144.525635 2753.209473,1136.195557 2748.058838,1127.635010 
	C2743.373779,1119.848389 2736.135742,1113.614502 2733.122070,1104.683105 
	C2739.522949,1099.551392 2746.466553,1101.095947 2752.934082,1100.661011 
	C2759.574707,1100.214355 2766.271729,1100.628906 2772.918213,1100.233765 
	C2779.166016,1099.862427 2785.906738,1101.826904 2793.454834,1096.949585 
	C2784.001709,1084.419189 2774.991455,1073.079712 2765.684326,1061.969971 
	C2643.468750,916.084045 2445.691895,869.255554 2274.315674,934.268127 
	C2196.986084,963.603516 2133.565186,1011.846375 2081.030029,1079.280518 
M2104.254883,1640.167603 
	C2096.513184,1641.731079 2095.082275,1643.634766 2098.697754,1647.834473 
	C2102.171143,1651.869263 2105.858398,1655.730835 2109.599609,1659.522339 
	C2233.201416,1784.775513 2418.569580,1826.848633 2583.845703,1766.840820 
	C2650.729492,1742.557007 2708.751465,1704.456665 2757.665039,1652.694946 
	C2760.522949,1649.670532 2765.837646,1647.072388 2762.364014,1640.856445 
	C2748.673340,1639.863770 2734.812256,1638.858643 2721.361328,1637.883301 
	C2557.974609,1795.259888 2303.545166,1796.660645 2139.058350,1637.916870 
	C2128.671143,1638.629395 2118.072998,1639.356445 2104.254883,1640.167603 
M2563.879639,1677.145264 
	C2533.593750,1668.055542 2503.206055,1659.516479 2470.482422,1658.629028 
	C2472.221924,1667.780273 2474.834961,1675.444092 2474.818115,1683.102051 
	C2474.800293,1691.203491 2472.279053,1699.299316 2470.833984,1707.496948 
	C2501.148193,1708.269653 2556.065186,1695.177490 2575.486816,1682.301758 
	C2572.064697,1680.753174 2569.357422,1679.528076 2563.879639,1677.145264 
M2333.902100,1700.252441 
	C2351.979248,1703.808105 2369.849854,1709.030518 2389.355469,1708.198120 
	C2387.626221,1699.312744 2384.992920,1691.673340 2384.963379,1684.023804 
	C2384.931885,1675.901855 2387.371094,1667.770508 2388.761963,1659.459595 
	C2354.840820,1660.120483 2306.128418,1671.847046 2285.678467,1684.347900 
	C2299.947510,1692.945068 2315.776123,1694.966187 2333.902100,1700.252441 
M2454.965088,1694.850586 
	C2455.618408,1690.292603 2457.039551,1685.690430 2456.781006,1681.184814 
	C2456.003906,1667.644531 2446.030762,1657.541016 2432.884766,1656.145386 
	C2419.801514,1654.756592 2407.238281,1663.022095 2403.822754,1675.265747 
	C2399.934814,1689.203125 2405.980957,1702.655640 2418.732422,1708.438843 
	C2431.118896,1714.056641 2440.446289,1711.130005 2454.965088,1694.850586 
z"/>
<path fill="#02A89E" opacity="1.000000" stroke="none" 
	d="
M1215.006592,2118.786377 
	C1244.208862,2095.648926 1275.384399,2079.465820 1310.553101,2072.152100 
	C1376.031494,2058.535400 1436.489502,2071.456055 1490.845337,2110.012451 
	C1550.052124,2152.010254 1580.936035,2210.096191 1584.649048,2282.575928 
	C1587.096313,2330.348145 1577.572998,2375.360840 1552.542480,2416.487061 
	C1518.417114,2472.557129 1468.173096,2505.995605 1404.562500,2519.693359 
	C1371.564087,2526.799072 1338.318604,2526.026123 1305.389160,2518.705322 
	C1220.691406,2499.876221 1146.145142,2422.858643 1135.022095,2332.927246 
	C1125.632690,2257.012939 1144.386841,2190.404053 1197.733032,2134.569580 
	C1202.781006,2129.286133 1208.503906,2124.647949 1215.006592,2118.786377 
z"/>
<path fill="#06AAA0" opacity="1.000000" stroke="none" 
	d="
M2440.542969,2080.434570 
	C2465.099609,2080.443604 2487.736084,2079.943359 2510.336914,2080.627441 
	C2527.590576,2081.149902 2544.968994,2082.086182 2561.991455,2084.754639 
	C2597.489258,2090.318848 2621.489258,2110.886719 2631.538086,2145.329102 
	C2641.711182,2180.196045 2633.025635,2211.181641 2606.845947,2236.611816 
	C2592.437012,2250.608398 2574.053467,2256.595947 2554.683838,2259.456787 
	C2542.856934,2261.203369 2530.867920,2262.638916 2518.937988,2262.750244 
	C2485.680664,2263.060303 2452.415771,2262.625732 2419.154297,2262.409668 
	C2417.203613,2262.396973 2415.257324,2261.714111 2412.202637,2261.132324 
	C2411.391357,2257.782471 2409.738281,2254.111084 2409.726562,2250.434570 
	C2409.555908,2197.874268 2409.588135,2145.312744 2409.650635,2092.751709 
	C2409.654541,2089.531494 2410.321533,2086.312256 2410.766602,2082.316650 
	C2420.258057,2078.969727 2429.575439,2081.097168 2440.542969,2080.434570 
z"/>
<path fill="#06AAA0" opacity="1.000000" stroke="none" 
	d="
M2535.302734,2761.508789 
	C2534.065186,2767.056152 2533.246094,2770.979736 2532.002686,2774.764160 
	C2523.335693,2801.142090 2505.245117,2818.324219 2478.078125,2822.200439 
	C2455.863037,2825.370117 2433.025146,2824.196289 2410.459717,2824.818604 
	C2409.349854,2824.849365 2408.205811,2823.638184 2407.077637,2823.004395 
	C2406.492432,2821.841553 2405.400879,2820.681641 2405.395752,2819.517090 
	C2405.180176,2770.273438 2405.045410,2721.029785 2404.977051,2671.785889 
	C2404.973633,2669.234131 2405.641357,2666.681396 2406.139404,2663.103027 
	C2410.201172,2662.450928 2413.996338,2661.192871 2417.730469,2661.353760 
	C2434.339111,2662.067871 2451.031982,2662.341553 2467.507080,2664.329590 
	C2507.174805,2669.116211 2533.620850,2697.902100 2535.884521,2737.884521 
	C2536.296631,2745.166504 2535.670898,2752.507080 2535.302734,2761.508789 
z"/>
<path fill="#13AEA5" opacity="1.000000" stroke="none" 
	d="
M2036.819824,2697.843994 
	C2038.750977,2694.295898 2040.088135,2692.037842 2041.397461,2689.826904 
	C2042.808350,2690.324707 2044.521484,2690.385010 2044.960327,2691.163574 
	C2056.577881,2711.771729 2065.721924,2733.525146 2076.473145,2756.322021 
	C2064.750000,2760.283936 2054.265381,2758.419922 2044.082153,2758.575439 
	C2033.693848,2758.734131 2023.186035,2759.575928 2011.556396,2757.377197 
	C2011.965942,2745.592041 2018.916748,2737.203369 2022.846069,2727.847656 
	C2026.932129,2718.119385 2031.735840,2708.692627 2036.819824,2697.843994 
z"/>
<path fill="#13AEA5" opacity="1.000000" stroke="none" 
	d="
M1172.333618,2758.690430 
	C1162.081299,2758.441650 1153.564331,2759.387695 1144.168701,2757.442627 
	C1144.229980,2748.178467 1149.270020,2741.742432 1152.308105,2734.743652 
	C1155.731934,2726.856445 1159.640015,2719.178711 1163.379272,2711.429932 
	C1166.809204,2704.322021 1170.294800,2697.240479 1174.481323,2688.660156 
	C1177.041260,2691.242432 1179.248901,2692.597900 1180.196655,2694.561279 
	C1188.827515,2712.441406 1197.279175,2730.408936 1205.662964,2748.406738 
	C1206.701904,2750.636719 1207.038574,2753.193604 1207.881714,2756.256348 
	C1201.764526,2759.833740 1195.746826,2758.395508 1190.063354,2758.640381 
	C1184.775146,2758.867920 1179.469604,2758.689941 1172.333618,2758.690430 
z"/>
<path fill="#F6FCFB" opacity="1.000000" stroke="none" 
	d="
M2081.948975,1078.153076 
	C2133.565186,1011.846375 2196.986084,963.603516 2274.315674,934.268127 
	C2445.691895,869.255554 2643.468750,916.084045 2765.684326,1061.969971 
	C2774.991455,1073.079712 2784.001709,1084.419189 2793.454834,1096.949585 
	C2785.906738,1101.826904 2779.166016,1099.862427 2772.918213,1100.233765 
	C2766.271729,1100.628906 2759.574707,1100.214355 2752.934082,1100.661011 
	C2746.466553,1101.095947 2739.522949,1099.551392 2733.122070,1104.683105 
	C2736.135742,1113.614502 2743.373779,1119.848389 2748.058838,1127.635010 
	C2753.209473,1136.195557 2758.745605,1144.525635 2763.839355,1153.118774 
	C2768.574219,1161.105957 2772.947754,1169.307373 2777.543701,1177.527832 
	C2796.988281,1180.678833 2816.289551,1182.550781 2833.916748,1190.505615 
	C2884.647461,1300.285156 2877.187256,1476.121826 2788.302002,1594.520020 
	C2736.593262,1600.693481 2688.792480,1588.693726 2643.898926,1559.453247 
	C2645.876221,1552.287598 2651.181152,1548.107666 2655.293457,1543.299561 
	C2685.246826,1508.279053 2706.072021,1468.518555 2717.846191,1423.971313 
	C2722.974365,1404.567383 2725.619141,1384.781006 2727.209473,1364.838989 
	C2729.251953,1339.222412 2724.887451,1314.217529 2717.862061,1289.842041 
	C2709.754639,1261.712036 2700.152344,1234.012207 2691.159668,1206.138306 
	C2689.939697,1202.357422 2688.491211,1198.650391 2686.758057,1193.820557 
	C2690.152588,1191.862061 2693.166260,1189.233032 2696.640869,1188.275879 
	C2710.093994,1184.569336 2723.693848,1181.395142 2738.300293,1177.758423 
	C2735.713379,1163.979858 2726.190186,1153.542725 2718.569580,1142.329590 
	C2711.137939,1131.394287 2702.447266,1121.314575 2693.987549,1110.445312 
	C2687.888428,1111.696045 2682.582520,1112.158325 2677.718262,1113.873779 
	C2574.321289,1150.340698 2508.342041,1221.661621 2488.195801,1329.446289 
	C2467.731934,1438.929688 2504.293701,1530.131104 2589.876709,1601.501587 
	C2593.961426,1604.907959 2598.153076,1608.185791 2602.243652,1611.585571 
	C2602.705322,1611.969116 2602.829834,1612.758179 2603.643311,1614.499268 
	C2599.072266,1623.934204 2592.406738,1632.811401 2584.916748,1642.627075 
	C2579.337891,1639.720703 2574.083740,1637.204956 2569.040283,1634.320679 
	C2526.437988,1609.958252 2480.417969,1597.842529 2431.547119,1597.633301 
	C2384.092041,1597.430176 2339.120117,1608.465698 2297.285400,1631.318481 
	C2290.865234,1634.825684 2284.495605,1638.425537 2277.610352,1642.256470 
	C2267.678223,1634.894897 2262.894531,1624.086304 2256.540039,1613.497803 
	C2260.699463,1609.947266 2264.073730,1606.824219 2267.691406,1604.014648 
	C2326.064697,1558.678345 2362.461182,1499.624268 2374.437500,1426.840332 
	C2397.571777,1286.249390 2313.147705,1155.627930 2183.184570,1113.859009 
	C2178.239990,1112.269775 2172.975586,1111.676270 2168.549316,1110.761230 
	C2149.837158,1129.019775 2133.016357,1153.096069 2125.566895,1172.387085 
	C2133.977539,1174.423828 2142.304443,1176.265015 2150.529541,1178.483643 
	C2158.124023,1180.532104 2165.609131,1182.985840 2174.215332,1185.585205 
	C2172.189453,1191.890137 2170.595703,1196.816284 2169.023438,1201.749390 
	C2160.332031,1229.017456 2151.335205,1256.192749 2143.025391,1283.576660 
	C2126.915527,1336.664062 2132.318604,1389.025269 2149.822021,1440.648315 
	C2161.492676,1475.068848 2179.322021,1506.168457 2202.708252,1534.043579 
	C2207.360596,1539.588745 2211.908447,1545.221680 2216.431152,1550.725098 
	C2189.004639,1579.000732 2123.350342,1595.523193 2071.812256,1587.620117 
	C1991.344849,1480.266113 1971.790405,1313.590698 2025.678101,1185.313110 
	C2043.912598,1176.331665 2064.599121,1174.686035 2086.272217,1171.101562 
	C2092.565674,1160.542114 2099.095703,1149.050171 2106.155273,1137.893677 
	C2113.163574,1126.818237 2120.704834,1116.079956 2128.794189,1104.029663 
	C2108.371826,1097.621216 2088.842529,1102.319458 2069.134033,1099.172974 
	C2069.467041,1090.082642 2077.212158,1085.770752 2081.948975,1078.153076 
M2327.963379,1162.030029 
	C2332.386719,1167.014038 2336.975342,1171.861816 2341.208008,1177.002930 
	C2392.435791,1239.225830 2417.548584,1310.734131 2415.395996,1391.231323 
	C2413.868164,1448.365234 2397.203369,1501.319092 2366.994873,1549.950195 
	C2363.681396,1555.284180 2358.700928,1559.913452 2357.916016,1567.540771 
	C2374.592773,1565.304810 2390.306396,1562.312012 2406.145508,1561.318237 
	C2422.726562,1560.277832 2439.446533,1560.683472 2456.071533,1561.336548 
	C2471.553467,1561.944824 2486.726318,1566.456299 2502.370605,1566.998901 
	C2502.370605,1564.974854 2502.626221,1564.153564 2502.331055,1563.665649 
	C2499.229004,1558.538086 2495.905762,1553.541016 2492.891846,1548.363647 
	C2432.527344,1444.670532 2427.466553,1338.383301 2483.096436,1231.969604 
	C2530.086670,1142.082520 2606.178223,1088.689697 2705.482178,1068.316528 
	C2708.968018,1067.601440 2713.919922,1069.208374 2715.083984,1063.232910 
	C2714.062744,1061.760986 2713.154541,1059.928345 2711.780029,1058.565918 
	C2707.048096,1053.876343 2702.333740,1049.141968 2697.293945,1044.793823 
	C2596.364746,957.714233 2480.182129,926.480164 2349.421631,951.464355 
	C2273.460449,965.978210 2208.107422,1001.784302 2152.377441,1055.243530 
	C2149.281250,1058.213501 2144.183838,1060.552979 2146.585938,1066.808960 
	C2216.308105,1078.557739 2276.434326,1109.141846 2327.963379,1162.030029 
M2078.945801,1345.966064 
	C2077.194336,1420.500000 2110.507080,1509.898682 2148.135010,1549.690918 
	C2154.561279,1548.727783 2161.208008,1548.075562 2166.418701,1541.644287 
	C2163.366455,1536.833740 2160.339600,1531.847168 2157.104980,1526.999390 
	C2135.080078,1493.992798 2119.280029,1458.251709 2110.208984,1419.617554 
	C2100.192139,1376.954102 2097.127930,1334.054932 2108.118164,1291.104126 
	C2113.885986,1268.563232 2120.835938,1246.327026 2126.926270,1223.864990 
	C2128.253174,1218.971313 2131.733398,1214.358154 2130.405762,1209.049561 
	C2118.573730,1203.893066 2118.547119,1204.021240 2106.366455,1206.789917 
	C2088.028564,1249.617554 2078.859131,1294.853027 2078.945801,1345.966064 
M2747.534668,1274.804199 
	C2748.315674,1278.040649 2749.079834,1281.281250 2749.881104,1284.512695 
	C2756.805420,1312.439087 2761.467285,1340.607544 2759.171143,1369.545288 
	C2755.656738,1413.831055 2745.484863,1456.397705 2724.833984,1495.922852 
	C2716.222412,1512.405151 2705.762451,1527.918457 2696.308105,1543.969360 
	C2695.438232,1545.446045 2695.768066,1547.629639 2695.435303,1550.350098 
	C2700.493652,1552.034302 2705.287842,1553.630615 2710.944336,1555.513916 
	C2752.082031,1499.838379 2774.916016,1438.629517 2781.029297,1370.538086 
	C2786.008301,1315.081665 2771.014160,1233.534302 2753.126465,1210.567871 
	C2746.048828,1211.310669 2738.103760,1210.277466 2729.453613,1214.487671 
	C2735.232422,1233.598389 2740.982666,1252.614990 2747.534668,1274.804199 
M2812.415527,1377.091553 
	C2809.883545,1393.514282 2808.102539,1410.099121 2804.603760,1426.313232 
	C2801.246094,1441.875122 2796.911377,1457.341675 2791.530029,1472.319824 
	C2785.920654,1487.932373 2778.635498,1502.950073 2771.921143,1518.156372 
	C2765.287842,1533.178589 2754.809814,1546.227539 2747.267578,1562.907593 
	C2756.371338,1562.907593 2763.426025,1562.907593 2770.436035,1562.907593 
	C2838.851807,1466.601929 2850.510498,1316.700684 2809.809082,1217.069336 
	C2804.514404,1215.892700 2799.488037,1210.752686 2792.834717,1215.906250 
	C2809.681152,1267.151367 2817.444092,1319.458252 2812.415527,1377.091553 
M2044.404663,1226.789917 
	C2043.710083,1229.362549 2043.009521,1231.933472 2042.321899,1234.507812 
	C2014.026489,1340.445435 2025.632568,1441.756592 2077.653809,1538.341431 
	C2081.101318,1544.742554 2085.125000,1550.833130 2088.523926,1556.475464 
	C2096.136963,1558.061646 2102.518799,1559.532593 2108.080566,1555.297485 
	C2096.996826,1533.011841 2085.836182,1511.901245 2075.903809,1490.227783 
	C2065.886230,1468.368530 2059.596436,1445.203247 2054.645508,1421.659180 
	C2049.687744,1398.083008 2047.249390,1374.286621 2047.018066,1350.232422 
	C2046.786865,1326.202026 2047.305786,1302.155151 2052.277344,1278.582397 
	C2057.169922,1255.383057 2063.188721,1232.421387 2068.737549,1209.254272 
	C2051.643311,1208.403931 2051.643311,1208.403931 2044.404663,1226.789917 
z"/>
<path fill="#F6FCFC" opacity="1.000000" stroke="none" 
	d="
M2105.864746,1640.125488 
	C2118.072998,1639.356445 2128.671143,1638.629395 2139.058350,1637.916870 
	C2303.545166,1796.660645 2557.974609,1795.259888 2721.361328,1637.883301 
	C2734.812256,1638.858643 2748.673340,1639.863770 2762.364014,1640.856445 
	C2765.837646,1647.072388 2760.522949,1649.670532 2757.665039,1652.694946 
	C2708.751465,1704.456665 2650.729492,1742.557007 2583.845703,1766.840820 
	C2418.569580,1826.848633 2233.201416,1784.775513 2109.599609,1659.522339 
	C2105.858398,1655.730835 2102.171143,1651.869263 2098.697754,1647.834473 
	C2095.082275,1643.634766 2096.513184,1641.731079 2105.864746,1640.125488 
z"/>
<path fill="#F6FCFB" opacity="1.000000" stroke="none" 
	d="
M2565.264893,1677.724121 
	C2569.357422,1679.528076 2572.064697,1680.753174 2575.486816,1682.301758 
	C2556.065186,1695.177490 2501.148193,1708.269653 2470.833984,1707.496948 
	C2472.279053,1699.299316 2474.800293,1691.203491 2474.818115,1683.102051 
	C2474.834961,1675.444092 2472.221924,1667.780273 2470.482422,1658.629028 
	C2503.206055,1659.516479 2533.593750,1668.055542 2565.264893,1677.724121 
z"/>
<path fill="#F6FCFB" opacity="1.000000" stroke="none" 
	d="
M2332.267090,1699.956177 
	C2315.776123,1694.966187 2299.947510,1692.945068 2285.678467,1684.347900 
	C2306.128418,1671.847046 2354.840820,1660.120483 2388.761963,1659.459595 
	C2387.371094,1667.770508 2384.931885,1675.901855 2384.963379,1684.023804 
	C2384.992920,1691.673340 2387.626221,1699.312744 2389.355469,1708.198120 
	C2369.849854,1709.030518 2351.979248,1703.808105 2332.267090,1699.956177 
z"/>
<path fill="#F6FCFB" opacity="1.000000" stroke="none" 
	d="
M2454.146484,1696.217285 
	C2440.446289,1711.130005 2431.118896,1714.056641 2418.732422,1708.438843 
	C2405.980957,1702.655640 2399.934814,1689.203125 2403.822754,1675.265747 
	C2407.238281,1663.022095 2419.801514,1654.756592 2432.884766,1656.145386 
	C2446.030762,1657.541016 2456.003906,1667.644531 2456.781006,1681.184814 
	C2457.039551,1685.690430 2455.618408,1690.292603 2454.146484,1696.217285 
z"/>
<path fill="#04A99F" opacity="1.000000" stroke="none" 
	d="
M2326.979492,1161.019165 
	C2276.434326,1109.141846 2216.308105,1078.557739 2146.585938,1066.808960 
	C2144.183838,1060.552979 2149.281250,1058.213501 2152.377441,1055.243530 
	C2208.107422,1001.784302 2273.460449,965.978210 2349.421631,951.464355 
	C2480.182129,926.480164 2596.364746,957.714233 2697.293945,1044.793823 
	C2702.333740,1049.141968 2707.048096,1053.876343 2711.780029,1058.565918 
	C2713.154541,1059.928345 2714.062744,1061.760986 2715.083984,1063.232910 
	C2713.919922,1069.208374 2708.968018,1067.601440 2705.482178,1068.316528 
	C2606.178223,1088.689697 2530.086670,1142.082520 2483.096436,1231.969604 
	C2427.466553,1338.383301 2432.527344,1444.670532 2492.891846,1548.363647 
	C2495.905762,1553.541016 2499.229004,1558.538086 2502.331055,1563.665649 
	C2502.626221,1564.153564 2502.370605,1564.974854 2502.370605,1566.998901 
	C2486.726318,1566.456299 2471.553467,1561.944824 2456.071533,1561.336548 
	C2439.446533,1560.683472 2422.726562,1560.277832 2406.145508,1561.318237 
	C2390.306396,1562.312012 2374.592773,1565.304810 2357.916016,1567.540771 
	C2358.700928,1559.913452 2363.681396,1555.284180 2366.994873,1549.950195 
	C2397.203369,1501.319092 2413.868164,1448.365234 2415.395996,1391.231323 
	C2417.548584,1310.734131 2392.435791,1239.225830 2341.208008,1177.002930 
	C2336.975342,1171.861816 2332.386719,1167.014038 2326.979492,1161.019165 
z"/>
<path fill="#13AEA5" opacity="1.000000" stroke="none" 
	d="
M2078.943359,1344.000854 
	C2078.859131,1294.853027 2088.028564,1249.617554 2106.366455,1206.789917 
	C2118.547119,1204.021240 2118.573730,1203.893066 2130.405762,1209.049561 
	C2131.733398,1214.358154 2128.253174,1218.971313 2126.926270,1223.864990 
	C2120.835938,1246.327026 2113.885986,1268.563232 2108.118164,1291.104126 
	C2097.127930,1334.054932 2100.192139,1376.954102 2110.208984,1419.617554 
	C2119.280029,1458.251709 2135.080078,1493.992798 2157.104980,1526.999390 
	C2160.339600,1531.847168 2163.366455,1536.833740 2166.418701,1541.644287 
	C2161.208008,1548.075562 2154.561279,1548.727783 2148.135010,1549.690918 
	C2110.507080,1509.898682 2077.194336,1420.500000 2078.943359,1344.000854 
z"/>
<path fill="#13AEA5" opacity="1.000000" stroke="none" 
	d="
M2747.133789,1273.217773 
	C2740.982666,1252.614990 2735.232422,1233.598389 2729.453613,1214.487671 
	C2738.103760,1210.277466 2746.048828,1211.310669 2753.126465,1210.567871 
	C2771.014160,1233.534302 2786.008301,1315.081665 2781.029297,1370.538086 
	C2774.916016,1438.629517 2752.082031,1499.838379 2710.944336,1555.513916 
	C2705.287842,1553.630615 2700.493652,1552.034302 2695.435303,1550.350098 
	C2695.768066,1547.629639 2695.438232,1545.446045 2696.308105,1543.969360 
	C2705.762451,1527.918457 2716.222412,1512.405151 2724.833984,1495.922852 
	C2745.484863,1456.397705 2755.656738,1413.831055 2759.171143,1369.545288 
	C2761.467285,1340.607544 2756.805420,1312.439087 2749.881104,1284.512695 
	C2749.079834,1281.281250 2748.315674,1278.040649 2747.133789,1273.217773 
z"/>
<path fill="#13AEA5" opacity="1.000000" stroke="none" 
	d="
M2812.541016,1375.187012 
	C2817.444092,1319.458252 2809.681152,1267.151367 2792.834717,1215.906250 
	C2799.488037,1210.752686 2804.514404,1215.892700 2809.809082,1217.069336 
	C2850.510498,1316.700684 2838.851807,1466.601929 2770.436035,1562.907593 
	C2763.426025,1562.907593 2756.371338,1562.907593 2747.267578,1562.907593 
	C2754.809814,1546.227539 2765.287842,1533.178589 2771.921143,1518.156372 
	C2778.635498,1502.950073 2785.920654,1487.932373 2791.530029,1472.319824 
	C2796.911377,1457.341675 2801.246094,1441.875122 2804.603760,1426.313232 
	C2808.102539,1410.099121 2809.883545,1393.514282 2812.541016,1375.187012 
z"/>
<path fill="#13AEA5" opacity="1.000000" stroke="none" 
	d="
M2044.874268,1225.244995 
	C2051.643311,1208.403931 2051.643311,1208.403931 2068.737549,1209.254272 
	C2063.188721,1232.421387 2057.169922,1255.383057 2052.277344,1278.582397 
	C2047.305786,1302.155151 2046.786865,1326.202026 2047.018066,1350.232422 
	C2047.249390,1374.286621 2049.687744,1398.083008 2054.645508,1421.659180 
	C2059.596436,1445.203247 2065.886230,1468.368530 2075.903809,1490.227783 
	C2085.836182,1511.901245 2096.996826,1533.011841 2108.080566,1555.297485 
	C2102.518799,1559.532593 2096.136963,1558.061646 2088.523926,1556.475464 
	C2085.125000,1550.833130 2081.101318,1544.742554 2077.653809,1538.341431 
	C2025.632568,1441.756592 2014.026489,1340.445435 2042.321899,1234.507812 
	C2043.009521,1231.933472 2043.710083,1229.362549 2044.874268,1225.244995 
z"/>
</svg>